<svg xmlns="http://www.w3.org/2000/svg" width="1100" height="420" viewBox="0 0 1100 420" role="img" aria-label="android offline first data flow">
  <rect width="1100" height="420" rx="18" fill="#f7fffb"/>
  <defs>
    <marker id="arrow" markerWidth="12" markerHeight="12" refX="10" refY="6" orient="auto">
      <path d="M2 2 L10 6 L2 10 Z" fill="#0f766e"/>
    </marker>
  </defs>
  <g font-family="Arial, sans-serif" text-anchor="middle">
    <rect x="80" y="140" width="150" height="86" rx="14" fill="#dcfce7" stroke="#16a34a" stroke-width="3"/>
    <text x="155" y="176" font-size="23" font-weight="700" fill="#14532d">UI</text>
    <text x="155" y="204" font-size="17" fill="#14532d">collect state</text>
    <rect x="310" y="140" width="190" height="86" rx="14" fill="#e0f2fe" stroke="#0284c7" stroke-width="3"/>
    <text x="405" y="176" font-size="23" font-weight="700" fill="#075985">ViewModel</text>
    <text x="405" y="204" font-size="17" fill="#075985">screen state</text>
    <rect x="580" y="140" width="190" height="86" rx="14" fill="#fef3c7" stroke="#d97706" stroke-width="3"/>
    <text x="675" y="176" font-size="23" font-weight="700" fill="#78350f">Repository</text>
    <text x="675" y="204" font-size="17" fill="#78350f">single source</text>
    <rect x="860" y="75" width="160" height="76" rx="14" fill="#f5f3ff" stroke="#7c3aed" stroke-width="3"/>
    <text x="940" y="119" font-size="23" font-weight="700" fill="#4c1d95">API</text>
    <rect x="860" y="250" width="160" height="76" rx="14" fill="#fee2e2" stroke="#dc2626" stroke-width="3"/>
    <text x="940" y="294" font-size="23" font-weight="700" fill="#7f1d1d">Room DB</text>
  </g>
  <g stroke="#0f766e" stroke-width="4" fill="none" marker-end="url(#arrow)">
    <path d="M230 183 H300"/>
    <path d="M500 183 H570"/>
    <path d="M770 164 C815 140 820 113 850 113"/>
    <path d="M860 288 C790 300 742 250 705 227"/>
    <path d="M860 288 C710 362 296 340 172 226"/>
  </g>
  <g font-family="Arial, sans-serif" font-size="18" fill="#334155">
    <text x="800" y="101">refresh</text>
    <text x="748" y="330">observe local data</text>
  </g>
</svg>
