<svg xmlns="http://www.w3.org/2000/svg" width="1100" height="360" viewBox="0 0 1100 360" role="img" aria-label="async crawler pipeline">
  <rect width="1100" height="360" rx="18" fill="#f7fbff"/>
  <defs>
    <marker id="arrow" markerWidth="12" markerHeight="12" refX="10" refY="6" orient="auto">
      <path d="M2 2 L10 6 L2 10 Z" fill="#2b6cb0"/>
    </marker>
  </defs>
  <g font-family="Arial, sans-serif" font-size="22" font-weight="700" text-anchor="middle">
    <rect x="55" y="120" width="160" height="86" rx="12" fill="#dbeafe" stroke="#2563eb" stroke-width="2"/>
    <text x="135" y="157" fill="#1e3a8a">URL</text>
    <text x="135" y="184" fill="#1e3a8a">Source</text>
    <rect x="280" y="120" width="160" height="86" rx="12" fill="#ecfdf5" stroke="#059669" stroke-width="2"/>
    <text x="360" y="157" fill="#064e3b">Queue</text>
    <text x="360" y="184" fill="#064e3b">Scheduler</text>
    <rect x="505" y="120" width="160" height="86" rx="12" fill="#fff7ed" stroke="#ea580c" stroke-width="2"/>
    <text x="585" y="157" fill="#7c2d12">Fetcher</text>
    <text x="585" y="184" fill="#7c2d12">aiohttp</text>
    <rect x="730" y="120" width="160" height="86" rx="12" fill="#f5f3ff" stroke="#7c3aed" stroke-width="2"/>
    <text x="810" y="157" fill="#4c1d95">Parser</text>
    <text x="810" y="184" fill="#4c1d95">Items</text>
    <rect x="955" y="120" width="100" height="86" rx="12" fill="#fef2f2" stroke="#dc2626" stroke-width="2"/>
    <text x="1005" y="157" fill="#7f1d1d">DB</text>
    <text x="1005" y="184" fill="#7f1d1d">Store</text>
  </g>
  <g stroke="#2b6cb0" stroke-width="4" fill="none" marker-end="url(#arrow)">
    <path d="M215 163 H270"/>
    <path d="M440 163 H495"/>
    <path d="M665 163 H720"/>
    <path d="M890 163 H945"/>
  </g>
  <g font-family="Arial, sans-serif" font-size="18" fill="#334155">
    <text x="278" y="260">dedupe</text>
    <text x="493" y="260">concurrency limit</text>
    <text x="712" y="260">html to data</text>
    <text x="900" y="260">idempotent write</text>
  </g>
</svg>
