<svg xmlns="http://www.w3.org/2000/svg" width="1200" height="675" viewBox="0 0 1200 675" role="img" aria-label="Article cover">
  <defs>
    <linearGradient id="bg" x1="0" y1="0" x2="1" y2="1">
      <stop offset="0" stop-color="#243447"/>
      <stop offset="0.55" stop-color="#ff7a59"/>
      <stop offset="1" stop-color="#ffd166"/>
    </linearGradient>
    <radialGradient id="glow" cx="50%" cy="50%" r="50%">
      <stop offset="0" stop-color="#ffffff" stop-opacity="0.24"/>
      <stop offset="1" stop-color="#ffffff" stop-opacity="0"/>
    </radialGradient>
    <pattern id="grid" width="52" height="52" patternUnits="userSpaceOnUse">
      <path d="M52 0H0v52" fill="none" stroke="#ffffff" stroke-width="1" opacity="0.12"/>
    </pattern>
  </defs>
  <rect width="1200" height="675" fill="url(#bg)"/>
  <rect width="1200" height="675" fill="url(#grid)"/>
  <circle cx="960" cy="128" r="260" fill="url(#glow)"/>
  <circle cx="210" cy="590" r="260" fill="url(#glow)"/>
  <path d="M110 500 C260 395 348 438 485 352 S760 200 1090 258" fill="none" stroke="#ffffff" stroke-width="3" opacity="0.16"/>
  <path d="M110 548 C284 446 388 486 512 404 S776 265 1090 318" fill="none" stroke="#ffffff" stroke-width="2" opacity="0.12"/>
  <g>
    <circle cx="600" cy="338" r="172" fill="#000000" opacity="0.14"/>
    <circle cx="600" cy="338" r="144" fill="#ffffff" opacity="0.08"/>
    
        <path d="M512 216h136l64 64v180H512z" fill="none" stroke="#ffffff" stroke-width="14" stroke-linecap="round" stroke-linejoin="round" opacity="0.96"/>
        <path d="M648 216v64h64M550 330h116M550 378h116M550 426h72" fill="none" stroke="#ffffff" stroke-width="8" stroke-linecap="round" stroke-linejoin="round" opacity="0.72"/>
  </g>
</svg>
